<?xml version="1.0" encoding="UTF-8" standalone="no"?>
<!-- Created with Inkscape (http://www.inkscape.org/) -->

<svg
   xmlns:dc="http://purl.org/dc/elements/1.1/"
   xmlns:cc="http://creativecommons.org/ns#"
   xmlns:rdf="http://www.w3.org/1999/02/22-rdf-syntax-ns#"
   xmlns:svg="http://www.w3.org/2000/svg"
   xmlns="http://www.w3.org/2000/svg"
   xmlns:sodipodi="http://sodipodi.sourceforge.net/DTD/sodipodi-0.dtd"
   xmlns:inkscape="http://www.inkscape.org/namespaces/inkscape"
   width="1660.9968"
   height="1658.6193"
   viewBox="0 0 439.47206 438.84301"
   version="1.1"
   id="svg8"
   sodipodi:docname="LaunchpadBox.svg"
   inkscape:version="0.92.4 (5da689c313, 2019-01-14)">
  <defs
     id="defs2" />
  <sodipodi:namedview
     id="base"
     pagecolor="#ffffff"
     bordercolor="#666666"
     borderopacity="1.0"
     inkscape:pageopacity="0.0"
     inkscape:pageshadow="2"
     inkscape:zoom="0.35"
     inkscape:cx="676.34893"
     inkscape:cy="772.5941"
     inkscape:document-units="mm"
     inkscape:current-layer="layer1"
     showgrid="true"
     units="px"
     inkscape:snap-global="true"
     inkscape:snap-grids="true"
     inkscape:snap-others="true"
     inkscape:object-nodes="false"
     inkscape:snap-nodes="true"
     inkscape:snap-to-guides="true"
     inkscape:snap-intersection-paths="true"
     inkscape:window-width="1920"
     inkscape:window-height="977"
     inkscape:window-x="0"
     inkscape:window-y="28"
     inkscape:window-maximized="1"
     fit-margin-top="0"
     fit-margin-left="0"
     fit-margin-right="0"
     fit-margin-bottom="0">
    <inkscape:grid
       type="xygrid"
       id="grid4518"
       originx="162.72696"
       originy="116.17329" />
  </sodipodi:namedview>
  <metadata
     id="metadata5">
    <rdf:RDF>
      <cc:Work
         rdf:about="">
        <dc:format>image/svg+xml</dc:format>
        <dc:type
           rdf:resource="http://purl.org/dc/dcmitype/StillImage" />
        <dc:title />
      </cc:Work>
    </rdf:RDF>
  </metadata>
  <g
     inkscape:label="Capa 1"
     inkscape:groupmode="layer"
     id="layer1"
     transform="translate(162.72697,25.669733)">
    <rect
       style="opacity:1;fill:#000000;fill-opacity:1;stroke:#7f7f7f;stroke-width:1.39091825;stroke-miterlimit:4;stroke-dasharray:none;stroke-opacity:1"
       id="LaunchpadBox"
       width="438.08115"
       height="437.45209"
       x="-162.03151"
       y="-24.974274"
       ry="12.979549" />
    <rect
       style="opacity:1;fill:#aec8c8;fill-opacity:1;stroke:#7f7f7f;stroke-width:1.32291663;stroke-miterlimit:4;stroke-dasharray:none;stroke-opacity:1"
       id="B81"
       width="39.687477"
       height="39.687466"
       x="-148.60887"
       y="35.071503"
       ry="3.9687879" />
    <rect
       ry="3.9687879"
       y="35.071503"
       x="-102.30679"
       height="39.687466"
       width="39.687462"
       id="B82"
       style="opacity:1;fill:#aec8c8;fill-opacity:1;stroke:#7f7f7f;stroke-width:1.32291663;stroke-miterlimit:4;stroke-dasharray:none;stroke-opacity:1" />
    <rect
       style="opacity:1;fill:#aec8c8;fill-opacity:1;stroke:#7f7f7f;stroke-width:1.32291663;stroke-miterlimit:4;stroke-dasharray:none;stroke-opacity:1"
       id="B83"
       width="39.687489"
       height="39.687466"
       x="-56.0047"
       y="35.071503"
       ry="3.9687881"
       inkscape:label="#B83" />
    <rect
       ry="3.9687881"
       y="35.071503"
       x="-9.7026291"
       height="39.687466"
       width="39.687492"
       id="B84"
       style="opacity:1;fill:#aec8c8;fill-opacity:1;stroke:#7f7f7f;stroke-width:1.32291663;stroke-miterlimit:4;stroke-dasharray:none;stroke-opacity:1" />
    <rect
       style="opacity:1;fill:#aec8c8;fill-opacity:1;stroke:#7f7f7f;stroke-width:1.32291663;stroke-miterlimit:4;stroke-dasharray:none;stroke-opacity:1"
       id="B71"
       width="39.687523"
       height="39.687496"
       x="-148.60887"
       y="81.373535"
       ry="3.9687905" />
    <rect
       ry="3.9687905"
       y="81.373535"
       x="-102.30679"
       height="39.687496"
       width="39.6875"
       id="B72"
       style="opacity:1;fill:#aec8c8;fill-opacity:1;stroke:#7f7f7f;stroke-width:1.32291663;stroke-miterlimit:4;stroke-dasharray:none;stroke-opacity:1" />
    <rect
       style="opacity:1;fill:#aec8c8;fill-opacity:1;stroke:#7f7f7f;stroke-width:1.32291663;stroke-miterlimit:4;stroke-dasharray:none;stroke-opacity:1"
       id="B73"
       width="39.687534"
       height="39.687496"
       x="-56.0047"
       y="81.373535"
       ry="3.9687908"
       inkscape:label="#B73" />
    <rect
       ry="3.9687908"
       y="81.373535"
       x="-9.7026291"
       height="39.687496"
       width="39.68755"
       id="B74"
       style="opacity:1;fill:#aec8c8;fill-opacity:1;stroke:#7f7f7f;stroke-width:1.32291663;stroke-miterlimit:4;stroke-dasharray:none;stroke-opacity:1" />
    <rect
       style="opacity:1;fill:#aec8c8;fill-opacity:1;stroke:#7f7f7f;stroke-width:1.32291663;stroke-miterlimit:4;stroke-dasharray:none;stroke-opacity:1"
       id="B61"
       width="39.687477"
       height="39.687519"
       x="-148.60887"
       y="127.67564"
       ry="3.9687932" />
    <rect
       ry="3.9687932"
       y="127.67564"
       x="-102.30679"
       height="39.687519"
       width="39.687462"
       id="B62"
       style="opacity:1;fill:#aec8c8;fill-opacity:1;stroke:#7f7f7f;stroke-width:1.32291663;stroke-miterlimit:4;stroke-dasharray:none;stroke-opacity:1" />
    <rect
       style="opacity:1;fill:#aec8c8;fill-opacity:1;stroke:#7f7f7f;stroke-width:1.32291663;stroke-miterlimit:4;stroke-dasharray:none;stroke-opacity:1"
       id="B63"
       width="39.687477"
       height="39.687519"
       x="-56.0047"
       y="127.67564"
       ry="3.9687934"
       inkscape:label="#B63" />
    <rect
       ry="3.9687934"
       y="127.67564"
       x="-9.7026291"
       height="39.687519"
       width="39.687492"
       id="B64"
       style="opacity:1;fill:#aec8c8;fill-opacity:1;stroke:#7f7f7f;stroke-width:1.32291663;stroke-miterlimit:4;stroke-dasharray:none;stroke-opacity:1" />
    <rect
       style="opacity:1;fill:#aec8c8;fill-opacity:1;stroke:#7f7f7f;stroke-width:1.32291663;stroke-miterlimit:4;stroke-dasharray:none;stroke-opacity:1"
       id="B51"
       width="39.687458"
       height="39.68755"
       x="-148.60887"
       y="173.97775"
       ry="3.9687958" />
    <rect
       ry="3.9687958"
       y="173.97775"
       x="-102.30679"
       height="39.68755"
       width="39.687443"
       id="B52"
       style="opacity:1;fill:#aec8c8;fill-opacity:1;stroke:#7f7f7f;stroke-width:1.32291663;stroke-miterlimit:4;stroke-dasharray:none;stroke-opacity:1" />
    <rect
       style="opacity:1;fill:#aec8c8;fill-opacity:1;stroke:#7f7f7f;stroke-width:1.32291663;stroke-miterlimit:4;stroke-dasharray:none;stroke-opacity:1"
       id="B53"
       width="39.687477"
       height="39.68755"
       x="-56.0047"
       y="173.97775"
       ry="3.9687958"
       inkscape:label="#B53" />
    <rect
       ry="3.9687958"
       y="173.97775"
       x="-9.7026291"
       height="39.68755"
       width="39.687492"
       id="B54"
       style="opacity:1;fill:#aec8c8;fill-opacity:1;stroke:#7f7f7f;stroke-width:1.32291663;stroke-miterlimit:4;stroke-dasharray:none;stroke-opacity:1" />
    <rect
       style="opacity:1;fill:#aec8c8;fill-opacity:1;stroke:#7f7f7f;stroke-width:1.32291663;stroke-miterlimit:4;stroke-dasharray:none;stroke-opacity:1"
       id="B41"
       width="39.6875"
       height="39.687496"
       x="-148.60887"
       y="220.27979"
       ry="3.9687905" />
    <rect
       ry="3.9687905"
       y="220.27979"
       x="-102.30679"
       height="39.687496"
       width="39.687492"
       id="B42"
       style="opacity:1;fill:#aec8c8;fill-opacity:1;stroke:#7f7f7f;stroke-width:1.32291663;stroke-miterlimit:4;stroke-dasharray:none;stroke-opacity:1" />
    <rect
       style="opacity:1;fill:#aec8c8;fill-opacity:1;stroke:#7f7f7f;stroke-width:1.32291663;stroke-miterlimit:4;stroke-dasharray:none;stroke-opacity:1"
       id="B43"
       width="39.687489"
       height="39.687496"
       x="-56.0047"
       y="220.27979"
       ry="3.9687908"
       inkscape:label="#B43" />
    <rect
       ry="3.9687908"
       y="220.27979"
       x="-9.7026291"
       height="39.687496"
       width="39.687511"
       id="B44"
       style="opacity:1;fill:#aec8c8;fill-opacity:1;stroke:#7f7f7f;stroke-width:1.32291663;stroke-miterlimit:4;stroke-dasharray:none;stroke-opacity:1" />
    <rect
       style="opacity:1;fill:#aec8c8;fill-opacity:1;stroke:#7f7f7f;stroke-width:1.32291663;stroke-miterlimit:4;stroke-dasharray:none;stroke-opacity:1"
       id="B31"
       width="39.687466"
       height="39.687523"
       x="-148.60887"
       y="266.58191"
       ry="3.9687934" />
    <rect
       ry="3.9687934"
       y="266.58191"
       x="-102.30679"
       height="39.687523"
       width="39.687462"
       id="B32"
       style="opacity:1;fill:#aec8c8;fill-opacity:1;stroke:#7f7f7f;stroke-width:1.32291663;stroke-miterlimit:4;stroke-dasharray:none;stroke-opacity:1" />
    <rect
       style="opacity:1;fill:#aec8c8;fill-opacity:1;stroke:#7f7f7f;stroke-width:1.32291663;stroke-miterlimit:4;stroke-dasharray:none;stroke-opacity:1"
       id="B33"
       width="39.687496"
       height="39.687523"
       x="-56.0047"
       y="266.58191"
       ry="3.9687934"
       inkscape:label="#B33" />
    <rect
       ry="3.9687934"
       y="266.58191"
       x="-9.7026291"
       height="39.687523"
       width="39.687473"
       id="B34"
       style="opacity:1;fill:#aec8c8;fill-opacity:1;stroke:#7f7f7f;stroke-width:1.32291663;stroke-miterlimit:4;stroke-dasharray:none;stroke-opacity:1" />
    <rect
       style="opacity:1;fill:#aec8c8;fill-opacity:1;stroke:#7f7f7f;stroke-width:1.32291663;stroke-miterlimit:4;stroke-dasharray:none;stroke-opacity:1"
       id="B21"
       width="39.687485"
       height="39.68755"
       x="-148.60887"
       y="312.884"
       ry="3.9687958" />
    <rect
       ry="3.9687958"
       y="312.884"
       x="-102.30679"
       height="39.68755"
       width="39.687481"
       id="B22"
       style="opacity:1;fill:#aec8c8;fill-opacity:1;stroke:#7f7f7f;stroke-width:1.32291663;stroke-miterlimit:4;stroke-dasharray:none;stroke-opacity:1" />
    <rect
       style="opacity:1;fill:#aec8c8;fill-opacity:1;stroke:#7f7f7f;stroke-width:1.32291663;stroke-miterlimit:4;stroke-dasharray:none;stroke-opacity:1"
       id="B23"
       width="39.687477"
       height="39.68755"
       x="-56.0047"
       y="312.884"
       ry="3.9687958"
       inkscape:label="#B23" />
    <rect
       ry="3.9687958"
       y="312.884"
       x="-9.7026291"
       height="39.68755"
       width="39.687492"
       id="B24"
       style="opacity:1;fill:#aec8c8;fill-opacity:1;stroke:#7f7f7f;stroke-width:1.32291663;stroke-miterlimit:4;stroke-dasharray:none;stroke-opacity:1" />
    <rect
       style="opacity:1;fill:#aec8c8;fill-opacity:1;stroke:#7f7f7f;stroke-width:1.32291663;stroke-miterlimit:4;stroke-dasharray:none;stroke-opacity:1"
       id="B11"
       width="39.687466"
       height="39.6875"
       x="-148.60887"
       y="359.18604"
       ry="3.9687908" />
    <rect
       ry="3.9687908"
       y="359.18604"
       x="-102.30679"
       height="39.6875"
       width="39.687462"
       id="B12"
       style="opacity:1;fill:#aec8c8;fill-opacity:1;stroke:#7f7f7f;stroke-width:1.32291663;stroke-miterlimit:4;stroke-dasharray:none;stroke-opacity:1" />
    <rect
       style="opacity:1;fill:#aec8c8;fill-opacity:1;stroke:#7f7f7f;stroke-width:1.32291663;stroke-miterlimit:4;stroke-dasharray:none;stroke-opacity:1"
       id="B13"
       width="39.687496"
       height="39.6875"
       x="-56.0047"
       y="359.18604"
       ry="3.9687908"
       inkscape:label="#B13" />
    <rect
       ry="3.9687908"
       y="359.18604"
       x="-9.7026291"
       height="39.6875"
       width="39.687473"
       id="B14"
       style="opacity:1;fill:#aec8c8;fill-opacity:1;stroke:#7f7f7f;stroke-width:1.32291663;stroke-miterlimit:4;stroke-dasharray:none;stroke-opacity:1" />
    <rect
       style="opacity:1;fill:#aec8c8;fill-opacity:1;stroke:#7f7f7f;stroke-width:1.32291663;stroke-miterlimit:4;stroke-dasharray:none;stroke-opacity:1"
       id="B85"
       width="39.687492"
       height="39.687469"
       x="36.599461"
       y="35.071503"
       ry="3.9687881" />
    <rect
       ry="3.9687881"
       y="35.071503"
       x="82.90155"
       height="39.687469"
       width="39.687496"
       id="B86"
       style="opacity:1;fill:#aec8c8;fill-opacity:1;stroke:#7f7f7f;stroke-width:1.32291663;stroke-miterlimit:4;stroke-dasharray:none;stroke-opacity:1" />
    <rect
       style="opacity:1;fill:#aec8c8;fill-opacity:1;stroke:#7f7f7f;stroke-width:1.32291663;stroke-miterlimit:4;stroke-dasharray:none;stroke-opacity:1"
       id="B87"
       width="39.687473"
       height="39.687469"
       x="129.2036"
       y="35.071503"
       ry="3.9687884"
       inkscape:label="#B87" />
    <rect
       ry="3.9687884"
       y="35.071503"
       x="175.50563"
       height="39.687469"
       width="39.687557"
       id="B88"
       style="opacity:1;fill:#aec8c8;fill-opacity:1;stroke:#7f7f7f;stroke-width:1.32291663;stroke-miterlimit:4;stroke-dasharray:none;stroke-opacity:1" />
    <rect
       style="opacity:1;fill:#aec8c8;fill-opacity:1;stroke:#7f7f7f;stroke-width:1.32291663;stroke-miterlimit:4;stroke-dasharray:none;stroke-opacity:1"
       id="B75"
       width="39.687531"
       height="39.687496"
       x="36.599461"
       y="81.373535"
       ry="3.9687908" />
    <rect
       ry="3.9687908"
       y="81.373535"
       x="82.90155"
       height="39.687496"
       width="39.687534"
       id="B76"
       style="opacity:1;fill:#aec8c8;fill-opacity:1;stroke:#7f7f7f;stroke-width:1.32291663;stroke-miterlimit:4;stroke-dasharray:none;stroke-opacity:1" />
    <rect
       style="opacity:1;fill:#aec8c8;fill-opacity:1;stroke:#7f7f7f;stroke-width:1.32291663;stroke-miterlimit:4;stroke-dasharray:none;stroke-opacity:1"
       id="B77"
       width="39.687511"
       height="39.687496"
       x="129.2036"
       y="81.373535"
       ry="3.9687908"
       inkscape:label="#B77" />
    <rect
       ry="3.9687908"
       y="81.373535"
       x="175.50571"
       height="39.687496"
       width="39.687481"
       id="B78"
       style="opacity:1;fill:#aec8c8;fill-opacity:1;stroke:#7f7f7f;stroke-width:1.32291663;stroke-miterlimit:4;stroke-dasharray:none;stroke-opacity:1" />
    <rect
       style="opacity:1;fill:#aec8c8;fill-opacity:1;stroke:#7f7f7f;stroke-width:1.32291663;stroke-miterlimit:4;stroke-dasharray:none;stroke-opacity:1"
       id="B65"
       width="39.687492"
       height="39.687523"
       x="36.599461"
       y="127.67564"
       ry="3.9687934" />
    <rect
       ry="3.9687934"
       y="127.67564"
       x="82.90155"
       height="39.687523"
       width="39.687496"
       id="B66"
       style="opacity:1;fill:#aec8c8;fill-opacity:1;stroke:#7f7f7f;stroke-width:1.32291663;stroke-miterlimit:4;stroke-dasharray:none;stroke-opacity:1" />
    <rect
       style="opacity:1;fill:#aec8c8;fill-opacity:1;stroke:#7f7f7f;stroke-width:1.32291663;stroke-miterlimit:4;stroke-dasharray:none;stroke-opacity:1"
       id="B67"
       width="39.687473"
       height="39.687523"
       x="129.2036"
       y="127.67564"
       ry="3.9687934"
       inkscape:label="#B67" />
    <rect
       ry="3.9687934"
       y="127.67564"
       x="175.50563"
       height="39.687523"
       width="39.687557"
       id="B68"
       style="opacity:1;fill:#aec8c8;fill-opacity:1;stroke:#7f7f7f;stroke-width:1.32291663;stroke-miterlimit:4;stroke-dasharray:none;stroke-opacity:1" />
    <rect
       style="opacity:1;fill:#aec8c8;fill-opacity:1;stroke:#7f7f7f;stroke-width:1.32291663;stroke-miterlimit:4;stroke-dasharray:none;stroke-opacity:1"
       id="B55"
       width="39.687473"
       height="39.68755"
       x="36.599461"
       y="173.97775"
       ry="3.9687958" />
    <rect
       ry="3.9687958"
       y="173.97775"
       x="82.90155"
       height="39.68755"
       width="39.687477"
       id="B56"
       style="opacity:1;fill:#aec8c8;fill-opacity:1;stroke:#7f7f7f;stroke-width:1.32291663;stroke-miterlimit:4;stroke-dasharray:none;stroke-opacity:1" />
    <rect
       style="opacity:1;fill:#aec8c8;fill-opacity:1;stroke:#7f7f7f;stroke-width:1.32291663;stroke-miterlimit:4;stroke-dasharray:none;stroke-opacity:1"
       id="B57"
       width="39.687473"
       height="39.68755"
       x="129.2036"
       y="173.97775"
       ry="3.9687958"
       inkscape:label="#B57" />
    <rect
       ry="3.9687958"
       y="173.97775"
       x="175.50563"
       height="39.68755"
       width="39.687557"
       id="B58"
       style="opacity:1;fill:#aec8c8;fill-opacity:1;stroke:#7f7f7f;stroke-width:1.32291663;stroke-miterlimit:4;stroke-dasharray:none;stroke-opacity:1" />
    <rect
       style="opacity:1;fill:#aec8c8;fill-opacity:1;stroke:#7f7f7f;stroke-width:1.32291663;stroke-miterlimit:4;stroke-dasharray:none;stroke-opacity:1"
       id="B45"
       width="39.687511"
       height="39.687496"
       x="36.599461"
       y="220.27979"
       ry="3.9687908" />
    <rect
       ry="3.9687908"
       y="220.27979"
       x="82.90155"
       height="39.687496"
       width="39.687534"
       id="B46"
       style="opacity:1;fill:#aec8c8;fill-opacity:1;stroke:#7f7f7f;stroke-width:1.32291663;stroke-miterlimit:4;stroke-dasharray:none;stroke-opacity:1" />
    <rect
       style="opacity:1;fill:#aec8c8;fill-opacity:1;stroke:#7f7f7f;stroke-width:1.32291663;stroke-miterlimit:4;stroke-dasharray:none;stroke-opacity:1"
       id="B47"
       width="39.687473"
       height="39.687496"
       x="129.2036"
       y="220.27979"
       ry="3.9687908"
       inkscape:label="#B47" />
    <rect
       ry="3.9687908"
       y="220.27979"
       x="175.50568"
       height="39.687496"
       width="39.687519"
       id="B48"
       style="opacity:1;fill:#aec8c8;fill-opacity:1;stroke:#7f7f7f;stroke-width:1.32291663;stroke-miterlimit:4;stroke-dasharray:none;stroke-opacity:1" />
    <rect
       style="opacity:1;fill:#aec8c8;fill-opacity:1;stroke:#7f7f7f;stroke-width:1.32291663;stroke-miterlimit:4;stroke-dasharray:none;stroke-opacity:1"
       id="B35"
       width="39.687473"
       height="39.687523"
       x="36.599461"
       y="266.58191"
       ry="3.9687934" />
    <rect
       ry="3.9687934"
       y="266.58191"
       x="82.90155"
       height="39.687523"
       width="39.687496"
       id="B36"
       style="opacity:1;fill:#aec8c8;fill-opacity:1;stroke:#7f7f7f;stroke-width:1.32291663;stroke-miterlimit:4;stroke-dasharray:none;stroke-opacity:1" />
    <rect
       style="opacity:1;fill:#aec8c8;fill-opacity:1;stroke:#7f7f7f;stroke-width:1.32291663;stroke-miterlimit:4;stroke-dasharray:none;stroke-opacity:1"
       id="B37"
       width="39.687473"
       height="39.687523"
       x="129.2036"
       y="266.58191"
       ry="3.9687934"
       inkscape:label="#B37" />
    <rect
       ry="3.9687934"
       y="266.58191"
       x="175.50563"
       height="39.687523"
       width="39.687557"
       id="B38"
       style="opacity:1;fill:#aec8c8;fill-opacity:1;stroke:#7f7f7f;stroke-width:1.32291663;stroke-miterlimit:4;stroke-dasharray:none;stroke-opacity:1" />
    <rect
       style="opacity:1;fill:#aec8c8;fill-opacity:1;stroke:#7f7f7f;stroke-width:1.32291663;stroke-miterlimit:4;stroke-dasharray:none;stroke-opacity:1"
       id="B25"
       width="39.687492"
       height="39.68755"
       x="36.599461"
       y="312.884"
       ry="3.9687958" />
    <rect
       ry="3.9687958"
       y="312.884"
       x="82.90155"
       height="39.68755"
       width="39.687515"
       id="B26"
       style="opacity:1;fill:#aec8c8;fill-opacity:1;stroke:#7f7f7f;stroke-width:1.32291663;stroke-miterlimit:4;stroke-dasharray:none;stroke-opacity:1" />
    <rect
       style="opacity:1;fill:#aec8c8;fill-opacity:1;stroke:#7f7f7f;stroke-width:1.32291663;stroke-miterlimit:4;stroke-dasharray:none;stroke-opacity:1"
       id="B27"
       width="39.687454"
       height="39.68755"
       x="129.2036"
       y="312.884"
       ry="3.9687958"
       inkscape:label="#B27" />
    <rect
       ry="3.9687958"
       y="312.884"
       x="175.50568"
       height="39.68755"
       width="39.687519"
       id="B28"
       style="opacity:1;fill:#aec8c8;fill-opacity:1;stroke:#7f7f7f;stroke-width:1.32291663;stroke-miterlimit:4;stroke-dasharray:none;stroke-opacity:1" />
    <rect
       style="opacity:1;fill:#aec8c8;fill-opacity:1;stroke:#7f7f7f;stroke-width:1.32291663;stroke-miterlimit:4;stroke-dasharray:none;stroke-opacity:1"
       id="B15"
       width="39.687473"
       height="39.6875"
       x="36.599461"
       y="359.18604"
       ry="3.9687908" />
    <rect
       ry="3.9687908"
       y="359.18604"
       x="82.90155"
       height="39.6875"
       width="39.687496"
       id="B16"
       style="opacity:1;fill:#aec8c8;fill-opacity:1;stroke:#7f7f7f;stroke-width:1.32291663;stroke-miterlimit:4;stroke-dasharray:none;stroke-opacity:1" />
    <rect
       style="opacity:1;fill:#aec8c8;fill-opacity:1;stroke:#7f7f7f;stroke-width:1.32291663;stroke-miterlimit:4;stroke-dasharray:none;stroke-opacity:1"
       id="B17"
       width="39.687473"
       height="39.6875"
       x="129.2036"
       y="359.18604"
       ry="3.9687908"
       inkscape:label="#B17" />
    <rect
       ry="3.9687908"
       y="359.18604"
       x="175.50563"
       height="39.6875"
       width="39.687557"
       id="B18"
       style="opacity:1;fill:#aec8c8;fill-opacity:1;stroke:#7f7f7f;stroke-width:1.32291663;stroke-miterlimit:4;stroke-dasharray:none;stroke-opacity:1" />
    <path
       style="opacity:1;fill:#aec8c8;fill-opacity:1;stroke:#7f7f7f;stroke-width:1.32291663;stroke-miterlimit:4;stroke-dasharray:none;stroke-opacity:1"
       d="m 241.96377,41.19567 a 13.953485,13.953533 0 0 0 -13.95349,13.9534 13.953485,13.953533 0 0 0 13.95349,13.95355 13.953485,13.953533 0 0 0 13.95348,-13.95355 13.953485,13.953533 0 0 0 -13.95348,-13.9534 z"
       id="B89"
       inkscape:connector-curvature="0" />
    <path
       style="opacity:1;fill:#aec8c8;fill-opacity:1;stroke:#7f7f7f;stroke-width:1.32291663;stroke-miterlimit:4;stroke-dasharray:none;stroke-opacity:1"
       d="m 241.96377,87.49772 a 13.953485,13.953534 0 0 0 -13.95349,13.9534 13.953485,13.953534 0 0 0 13.95349,13.95355 13.953485,13.953534 0 0 0 13.95349,-13.95355 13.953485,13.953534 0 0 0 -13.95349,-13.9534 z"
       id="B79"
       inkscape:connector-curvature="0" />
    <path
       style="opacity:1;fill:#aec8c8;fill-opacity:1;stroke:#7f7f7f;stroke-width:1.32291663;stroke-miterlimit:4;stroke-dasharray:none;stroke-opacity:1"
       d="m 241.9656,133.79982 a 13.953485,13.953534 0 0 0 -13.95349,13.9534 13.953485,13.953534 0 0 0 13.95349,13.95355 13.953485,13.953534 0 0 0 13.95348,-13.95355 13.953485,13.953534 0 0 0 -13.95348,-13.9534 z"
       id="B69"
       inkscape:connector-curvature="0" />
    <path
       style="opacity:1;fill:#aec8c8;fill-opacity:1;stroke:#7f7f7f;stroke-width:1.32291663;stroke-miterlimit:4;stroke-dasharray:none;stroke-opacity:1"
       d="m 241.9656,180.10187 a 13.953485,13.953534 0 0 0 -13.95349,13.9534 13.953485,13.953534 0 0 0 13.95349,13.95355 13.953485,13.953534 0 0 0 13.95348,-13.95355 13.953485,13.953534 0 0 0 -13.95348,-13.9534 z"
       id="B59"
       inkscape:connector-curvature="0" />
    <path
       style="opacity:1;fill:#aec8c8;fill-opacity:1;stroke:#7f7f7f;stroke-width:1.32291663;stroke-miterlimit:4;stroke-dasharray:none;stroke-opacity:1"
       d="m 241.96377,226.40402 a 13.953485,13.953534 0 0 0 -13.95349,13.9534 13.953485,13.953534 0 0 0 13.95349,13.95355 13.953485,13.953534 0 0 0 13.95348,-13.95355 13.953485,13.953534 0 0 0 -13.95348,-13.9534 z"
       id="B49"
       inkscape:connector-curvature="0" />
    <path
       style="opacity:1;fill:#aec8c8;fill-opacity:1;stroke:#7f7f7f;stroke-width:1.32291663;stroke-miterlimit:4;stroke-dasharray:none;stroke-opacity:1"
       d="m 241.96377,272.70607 a 13.953485,13.953534 0 0 0 -13.95349,13.9534 13.953485,13.953534 0 0 0 13.95349,13.95355 13.953485,13.953534 0 0 0 13.95349,-13.95355 13.953485,13.953534 0 0 0 -13.95349,-13.9534 z"
       id="B39"
       inkscape:connector-curvature="0" />
    <path
       style="opacity:1;fill:#aec8c8;fill-opacity:1;stroke:#7f7f7f;stroke-width:1.32291663;stroke-miterlimit:4;stroke-dasharray:none;stroke-opacity:1"
       d="m 241.9656,319.00817 a 13.953485,13.953534 0 0 0 -13.95349,13.9534 13.953485,13.953534 0 0 0 13.95349,13.95355 13.953485,13.953534 0 0 0 13.95348,-13.95355 13.953485,13.953534 0 0 0 -13.95348,-13.9534 z"
       id="B29"
       inkscape:connector-curvature="0" />
    <path
       style="opacity:1;fill:#aec8c8;fill-opacity:1;stroke:#7f7f7f;stroke-width:1.32291663;stroke-miterlimit:4;stroke-dasharray:none;stroke-opacity:1"
       d="m 241.9656,365.31022 a 13.953485,13.953534 0 0 0 -13.95349,13.9534 13.953485,13.953534 0 0 0 13.95349,13.95355 13.953485,13.953534 0 0 0 13.95348,-13.95355 13.953485,13.953534 0 0 0 -13.95348,-13.9534 z"
       id="B19"
       inkscape:connector-curvature="0" />
    <path
       style="opacity:1;fill:#aec8c8;fill-opacity:1;stroke:#7f7f7f;stroke-width:1.32291663;stroke-miterlimit:4;stroke-dasharray:none;stroke-opacity:1"
       d="m -129.03622,-5.1056301 a 13.953485,13.953534 0 0 0 -13.9535,13.9534 13.953485,13.953534 0 0 0 13.9535,13.9535501 13.953485,13.953534 0 0 0 13.9535,-13.9535501 13.953485,13.953534 0 0 0 -13.9535,-13.9534 z"
       id="B104"
       inkscape:connector-curvature="0" />
    <path
       style="opacity:1;fill:#aec8c8;fill-opacity:1;stroke:#7f7f7f;stroke-width:1.32291663;stroke-miterlimit:4;stroke-dasharray:none;stroke-opacity:1"
       d="m -82.515416,-5.1056301 a 13.953485,13.953534 0 0 0 -13.9535,13.9534 13.953485,13.953534 0 0 0 13.9535,13.9535501 13.953485,13.953534 0 0 0 13.9535,-13.9535501 13.953485,13.953534 0 0 0 -13.9535,-13.9534 z"
       id="B105"
       inkscape:connector-curvature="0" />
    <path
       style="opacity:1;fill:#aec8c8;fill-opacity:1;stroke:#7f7f7f;stroke-width:1.32291663;stroke-miterlimit:4;stroke-dasharray:none;stroke-opacity:1"
       d="m -36.213336,-5.1056301 a 13.953485,13.953534 0 0 0 -13.9535,13.9534 13.953485,13.953534 0 0 0 13.9535,13.9535501 13.953485,13.953534 0 0 0 13.9535,-13.9535501 13.953485,13.953534 0 0 0 -13.9535,-13.9534 z"
       id="B106"
       inkscape:connector-curvature="0" />
    <path
       style="opacity:1;fill:#aec8c8;fill-opacity:1;stroke:#7f7f7f;stroke-width:1.32291663;stroke-miterlimit:4;stroke-dasharray:none;stroke-opacity:1"
       d="m 10.307464,-5.1056301 a 13.953485,13.953534 0 0 0 -13.9534998,13.9534 13.953485,13.953534 0 0 0 13.9534998,13.9535501 13.953485,13.953534 0 0 0 13.9535,-13.9535501 13.953485,13.953534 0 0 0 -13.9535,-13.9534 z"
       id="B107"
       inkscape:connector-curvature="0" />
    <path
       style="opacity:1;fill:#aec8c8;fill-opacity:1;stroke:#7f7f7f;stroke-width:1.32291663;stroke-miterlimit:4;stroke-dasharray:none;stroke-opacity:1"
       d="m 56.390834,-5.1056301 a 13.953485,13.953534 0 0 0 -13.9535,13.9534 13.953485,13.953534 0 0 0 13.9535,13.9535501 13.953485,13.953534 0 0 0 13.9535,-13.9535501 13.953485,13.953534 0 0 0 -13.9535,-13.9534 z"
       id="B108"
       inkscape:connector-curvature="0" />
    <path
       style="opacity:1;fill:#aec8c8;fill-opacity:1;stroke:#7f7f7f;stroke-width:1.32291663;stroke-miterlimit:4;stroke-dasharray:none;stroke-opacity:1"
       d="m 102.91164,-5.1056301 a 13.953485,13.953534 0 0 0 -13.953501,13.9534 13.953485,13.953534 0 0 0 13.953501,13.9535501 13.953485,13.953534 0 0 0 13.9535,-13.9535501 13.953485,13.953534 0 0 0 -13.9535,-13.9534 z"
       id="B109"
       inkscape:connector-curvature="0" />
    <path
       style="opacity:1;fill:#aec8c8;fill-opacity:1;stroke:#7f7f7f;stroke-width:1.32291663;stroke-miterlimit:4;stroke-dasharray:none;stroke-opacity:1"
       d="m 149.21372,-5.1056301 a 13.953485,13.953534 0 0 0 -13.9535,13.9534 13.953485,13.953534 0 0 0 13.9535,13.9535501 13.953485,13.953534 0 0 0 13.9535,-13.9535501 13.953485,13.953534 0 0 0 -13.9535,-13.9534 z"
       id="B110"
       inkscape:connector-curvature="0" />
    <path
       style="opacity:1;fill:#aec8c8;fill-opacity:1;stroke:#7f7f7f;stroke-width:1.32291663;stroke-miterlimit:4;stroke-dasharray:none;stroke-opacity:1"
       d="m 195.73452,-5.1056301 a 13.953485,13.953534 0 0 0 -13.95349,13.9534 13.953485,13.953534 0 0 0 13.95349,13.9535501 13.953485,13.953534 0 0 0 13.9535,-13.9535501 13.953485,13.953534 0 0 0 -13.9535,-13.9534 z"
       id="B111"
       inkscape:connector-curvature="0" />
  </g>
</svg>
